<svg width="160" height="160" viewBox="0 0 160 160" fill="none" xmlns="http://www.w3.org/2000/svg">
<rect width="160" height="160" rx="80" fill="url(#paint0_linear_141_50)" fill-opacity="0.16"/>
<path d="M80 41.8176C69.3913 41.8176 59.2172 45.8633 51.7157 53.0647C44.2143 60.2661 40 70.0333 40 80.2176C40 90.4019 44.2143 100.169 51.7157 107.371C59.2172 114.572 69.3913 118.618 80 118.618C90.6087 118.618 100.783 114.572 108.284 107.371C115.786 100.169 120 90.4019 120 80.2176C120 70.0333 115.786 60.2661 108.284 53.0647C100.783 45.8633 90.6087 41.8176 80 41.8176ZM90.5433 111.523H90.2333C90.0006 111.535 89.7679 111.501 89.5491 111.424C89.3303 111.347 89.13 111.228 88.96 111.075C88.6464 110.753 88.4785 110.325 88.4933 109.885V105.386C88.5156 103.888 88.5267 102.378 88.5267 100.854C88.5212 99.7396 88.3518 98.631 88.0233 97.5616C87.712 96.4827 87.085 95.5121 86.2167 94.7648C88.5401 94.55 90.824 94.0433 93.01 93.2576C94.8541 92.5845 96.5221 91.5315 97.8967 90.1728C99.253 88.8044 100.263 87.1542 100.847 85.3504C101.554 83.1448 101.892 80.8451 101.847 78.5376C101.863 76.9255 101.569 75.3243 100.98 73.8144C100.384 72.2922 99.4838 70.8964 98.33 69.7056C98.5811 69.1019 98.7611 68.48 98.87 67.84C99.121 66.3777 99.0757 64.8827 98.7367 63.4368C98.559 62.6055 98.3126 61.7891 98 60.9952C97.882 60.9516 97.7564 60.9299 97.63 60.9312H97.2633C96.5004 60.9406 95.7431 61.0592 95.0167 61.2832C94.2167 61.5094 93.4356 61.7878 92.6733 62.1184C91.9191 62.4465 91.1836 62.8129 90.47 63.216C89.7544 63.6256 89.1178 64.0118 88.56 64.3744C82.9519 62.8776 77.0248 62.8776 71.4167 64.3744C70.7909 63.9736 70.1552 63.5874 69.51 63.216C68.7881 62.8054 68.0399 62.4388 67.27 62.1184C66.5122 61.7787 65.7261 61.5004 64.92 61.2864C64.2079 61.0593 63.4637 60.9384 62.7133 60.928H62.3467C62.2213 60.9271 62.097 60.9488 61.98 60.992C61.6682 61.7897 61.4121 62.6065 61.2133 63.4368C61.0355 64.2503 60.945 65.0792 60.9433 65.9104C60.9433 66.559 61 67.2022 61.1133 67.84C61.2244 68.48 61.4022 69.1019 61.6467 69.7056C60.4965 70.8972 59.5997 72.2929 59.0067 73.8144C58.4145 75.3237 58.1173 76.9249 58.13 78.5376C58.0853 80.8327 58.4137 83.1205 59.1033 85.3184C59.7067 87.1232 60.7133 88.7808 62.05 90.1728C63.4333 91.5232 65.1 92.5728 66.9367 93.2576C69.1133 94.0576 71.3933 94.5696 73.7133 94.7808C73.0633 95.3425 72.5491 96.0339 72.2067 96.8064C71.8788 97.5692 71.6547 98.3694 71.54 99.1872C70.3171 99.7498 68.9794 100.045 67.6233 100.051C66.364 100.096 65.1219 99.759 64.0733 99.088C63.0682 98.3741 62.2169 97.4797 61.5667 96.4544C61.2768 96.0226 60.9513 95.6138 60.5933 95.232C60.2167 94.8297 59.8015 94.4622 59.3533 94.1344C58.9089 93.8144 58.4289 93.5584 57.9133 93.3664C57.4078 93.1537 56.8619 93.0436 56.31 93.0432C56.1767 93.0432 56.0433 93.0539 55.91 93.0752C55.728 93.0763 55.5468 93.0978 55.37 93.1392C55.2147 93.1777 55.0679 93.2427 54.9367 93.3312C54.8777 93.3638 54.8284 93.4103 54.7935 93.4663C54.7585 93.5223 54.7389 93.586 54.7367 93.6512C54.7507 93.8052 54.7997 93.9544 54.8804 94.0882C54.961 94.222 55.0712 94.3372 55.2033 94.4256C55.5144 94.6624 55.7722 94.8448 55.9767 94.9728L56.0767 95.0368C56.5211 95.3696 56.9456 95.7248 57.35 96.1024C57.7256 96.4182 58.0589 96.7712 58.35 97.1616C58.6522 97.5414 58.9089 97.9467 59.12 98.3776C59.3644 98.8086 59.6211 99.3035 59.89 99.8624C60.5167 101.376 61.63 102.659 63.07 103.526C64.58 104.304 66.2733 104.691 67.99 104.65C68.5722 104.65 69.1522 104.618 69.73 104.554C70.3033 104.466 70.8756 104.369 71.4467 104.262V109.84C71.457 110.065 71.4179 110.289 71.3317 110.499C71.2455 110.708 71.1143 110.898 70.9466 111.055C70.779 111.212 70.5786 111.334 70.3586 111.412C70.1386 111.49 69.904 111.522 69.67 111.507H69.4633C61.6911 109.097 55.0707 104.101 50.7943 97.4206C46.5179 90.74 44.8666 82.8133 46.1376 75.0676C47.4087 67.322 51.5186 60.2665 57.7273 55.1716C63.936 50.0767 71.8355 47.2772 80.0033 47.2772C88.1712 47.2772 96.0707 50.0767 102.279 55.1716C108.488 60.2665 112.598 67.322 113.869 75.0676C115.14 82.8133 113.489 90.74 109.212 97.4206C104.936 104.101 98.3156 109.097 90.5433 111.507V111.523Z" fill="#F5F5F5"/>
<defs>
<linearGradient id="paint0_linear_141_50" x1="1.52438e-07" y1="119.438" x2="160" y2="40.5619" gradientUnits="userSpaceOnUse">
<stop stop-color="#282828"/>
<stop offset="0.5" stop-color="#F6F6F6"/>
<stop offset="1" stop-color="#282828"/>
</linearGradient>
</defs>
</svg>
