<svg width="160" height="160" viewBox="0 0 160 160" fill="none" xmlns="http://www.w3.org/2000/svg">
<rect width="160" height="160" rx="80" fill="url(#paint0_linear_141_67)" fill-opacity="0.16"/>
<path d="M79.3367 69.3333C76.6845 69.3333 74.141 70.3869 72.2656 72.2623C70.3902 74.1376 69.3367 76.6812 69.3367 79.3333C69.3367 81.9855 70.3902 84.529 72.2656 86.4044C74.141 88.2798 76.6845 89.3333 79.3367 89.3333C81.9888 89.3333 84.5324 88.2798 86.4077 86.4044C88.2831 84.529 89.3367 81.9855 89.3367 79.3333C89.3367 76.6812 88.2831 74.1376 86.4077 72.2623C84.5324 70.3869 81.9888 69.3333 79.3367 69.3333ZM79.3367 62.6667C83.7569 62.6667 87.9962 64.4226 91.1218 67.5482C94.2474 70.6738 96.0033 74.9131 96.0033 79.3333C96.0033 83.7536 94.2474 87.9928 91.1218 91.1184C87.9962 94.2441 83.7569 96 79.3367 96C74.9164 96 70.6772 94.2441 67.5516 91.1184C64.426 87.9928 62.67 83.7536 62.67 79.3333C62.67 74.9131 64.426 70.6738 67.5516 67.5482C70.6772 64.4226 74.9164 62.6667 79.3367 62.6667ZM101.003 61.8333C101.003 62.9384 100.564 63.9982 99.7829 64.7796C99.0015 65.561 97.9417 66 96.8367 66C95.7316 66 94.6718 65.561 93.8904 64.7796C93.109 63.9982 92.67 62.9384 92.67 61.8333C92.67 60.7283 93.109 59.6685 93.8904 58.8871C94.6718 58.1057 95.7316 57.6667 96.8367 57.6667C97.9417 57.6667 99.0015 58.1057 99.7829 58.8871C100.564 59.6685 101.003 60.7283 101.003 61.8333ZM79.3367 52.6667C71.09 52.6667 69.7433 52.69 65.9067 52.86C63.2933 52.9833 61.54 53.3333 59.9133 53.9667C58.5528 54.4679 57.3224 55.2688 56.3133 56.31C55.2709 57.3187 54.4689 58.5491 53.9667 59.91C53.3333 61.5433 52.9833 63.2933 52.8633 65.9033C52.69 69.5833 52.6667 70.87 52.6667 79.3333C52.6667 87.5833 52.69 88.9267 52.86 92.7633C52.9833 95.3733 53.3333 97.13 53.9633 98.7533C54.53 100.203 55.1967 101.247 56.3033 102.353C57.4267 103.473 58.47 104.143 59.9033 104.697C61.55 105.333 63.3033 105.687 65.9033 105.807C69.5833 105.98 70.87 106 79.3333 106C87.5833 106 88.9267 105.977 92.7633 105.807C95.37 105.683 97.1233 105.333 98.7533 104.703C100.114 104.202 101.344 103.401 102.353 102.36C103.477 101.24 104.147 100.197 104.7 98.76C105.333 97.12 105.687 95.3667 105.807 92.76C105.98 89.0833 106 87.7933 106 79.3333C106 71.0867 105.977 69.74 105.807 65.9033C105.683 63.2967 105.33 61.5367 104.7 59.91C104.199 58.5494 103.398 57.3191 102.357 56.31C101.348 55.2676 100.118 54.4655 98.7567 53.9633C97.1233 53.33 95.37 52.98 92.7633 52.86C89.0867 52.6867 87.8 52.6667 79.3333 52.6667M79.3333 46C88.39 46 89.52 46.0333 93.0767 46.2C96.6233 46.3667 99.0433 46.9233 101.167 47.75C103.367 48.5967 105.22 49.7433 107.073 51.5933C108.769 53.2591 110.081 55.2749 110.917 57.5C111.74 59.6233 112.3 62.0433 112.467 65.5933C112.623 69.1467 112.667 70.2767 112.667 79.3333C112.667 88.39 112.633 89.52 112.467 93.0733C112.3 96.6267 111.74 99.04 110.917 101.167C110.081 103.392 108.769 105.408 107.073 107.073C105.408 108.769 103.392 110.081 101.167 110.917C99.0433 111.74 96.6233 112.3 93.0767 112.467C89.52 112.623 88.39 112.667 79.3333 112.667C70.2767 112.667 69.1467 112.633 65.59 112.467C62.0433 112.3 59.6267 111.74 57.5 110.917C55.2749 110.081 53.2591 108.769 51.5933 107.073C49.8977 105.408 48.5861 103.392 47.75 101.167C46.9233 99.0433 46.3667 96.6233 46.2 93.0733C46.04 89.52 46 88.39 46 79.3333C46 70.2767 46.0333 69.1467 46.2 65.5933C46.3667 62.04 46.9233 59.6267 47.75 57.5C48.5861 55.2749 49.8977 53.2591 51.5933 51.5933C53.2591 49.8977 55.2749 48.5861 57.5 47.75C59.6233 46.9233 62.04 46.3667 65.59 46.2C69.15 46.0433 70.28 46 79.3367 46" fill="#F5F5F5"/>
<defs>
<linearGradient id="paint0_linear_141_67" x1="-2.94314e-06" y1="113.235" x2="160" y2="46.7649" gradientUnits="userSpaceOnUse">
<stop stop-color="#282828"/>
<stop offset="0.5" stop-color="#F6F6F6"/>
<stop offset="1" stop-color="#282828"/>
</linearGradient>
</defs>
</svg>
