<svg width="160" height="160" viewBox="0 0 160 160" fill="none" xmlns="http://www.w3.org/2000/svg">
<rect width="160" height="160" rx="80" fill="url(#paint0_linear_141_62)" fill-opacity="0.16"/>
<path d="M102.5 46.25C105.484 46.25 108.345 47.4353 110.455 49.545C112.565 51.6548 113.75 54.5163 113.75 57.5V102.5C113.75 105.484 112.565 108.345 110.455 110.455C108.345 112.565 105.484 113.75 102.5 113.75H57.5C54.5163 113.75 51.6548 112.565 49.545 110.455C47.4353 108.345 46.25 105.484 46.25 102.5V57.5C46.25 54.5163 47.4353 51.6548 49.545 49.545C51.6548 47.4353 54.5163 46.25 57.5 46.25H102.5ZM102.5 53.75H57.5C56.5054 53.75 55.5516 54.1451 54.8484 54.8484C54.1451 55.5516 53.75 56.5054 53.75 57.5V102.5C53.75 103.495 54.1451 104.448 54.8484 105.152C55.5516 105.855 56.5054 106.25 57.5 106.25H102.5C103.495 106.25 104.448 105.855 105.152 105.152C105.855 104.448 106.25 103.495 106.25 102.5V57.5C106.25 56.5054 105.855 55.5516 105.152 54.8484C104.448 54.1451 103.495 53.75 102.5 53.75ZM65 72.5C65.9185 72.5001 66.805 72.8373 67.4914 73.4477C68.1778 74.058 68.6163 74.8991 68.7238 75.8113L68.75 76.25V95C68.7489 95.9558 68.383 96.8751 67.7268 97.5701C67.0707 98.2651 66.1739 98.6834 65.2198 98.7394C64.2656 98.7954 63.3261 98.485 62.5931 97.8715C61.8602 97.258 61.3891 96.3879 61.2762 95.4388L61.25 95V76.25C61.25 75.2554 61.6451 74.3016 62.3484 73.5984C63.0516 72.8951 64.0054 72.5 65 72.5ZM76.25 68.75C77.1282 68.7499 77.9786 69.058 78.653 69.6206C79.3273 70.1832 79.7828 70.9647 79.94 71.8288C80.6953 71.3925 81.4754 71.0006 82.2763 70.655C84.7775 69.5863 88.5238 68.9975 91.9063 70.0587C93.68 70.6212 95.4613 71.6712 96.7813 73.46C97.9625 75.0537 98.6 76.9925 98.7275 79.1713L98.75 80V95C98.7489 95.9558 98.383 96.8751 97.7268 97.5701C97.0707 98.2651 96.1739 98.6834 95.2198 98.7394C94.2656 98.7954 93.3261 98.485 92.5931 97.8715C91.8602 97.258 91.3891 96.3879 91.2762 95.4388L91.25 95V80C91.25 78.7625 90.95 78.185 90.755 77.9187C90.4747 77.571 90.0892 77.3236 89.6562 77.2137C88.3512 76.8012 86.4725 77.0188 85.2237 77.5513C83.3487 78.3538 81.6313 79.6138 80.4613 80.78L80 81.275V95C79.9989 95.9558 79.633 96.8751 78.9768 97.5701C78.3207 98.2651 77.4239 98.6834 76.4698 98.7394C75.5156 98.7954 74.5761 98.485 73.8431 97.8715C73.1102 97.258 72.6391 96.3879 72.5262 95.4388L72.5 95V72.5C72.5 71.5054 72.8951 70.5516 73.5984 69.8484C74.3016 69.1451 75.2554 68.75 76.25 68.75ZM65 61.25C65.9946 61.25 66.9484 61.6451 67.6516 62.3484C68.3549 63.0516 68.75 64.0054 68.75 65C68.75 65.9946 68.3549 66.9484 67.6516 67.6516C66.9484 68.3549 65.9946 68.75 65 68.75C64.0054 68.75 63.0516 68.3549 62.3484 67.6516C61.6451 66.9484 61.25 65.9946 61.25 65C61.25 64.0054 61.6451 63.0516 62.3484 62.3484C63.0516 61.6451 64.0054 61.25 65 61.25Z" fill="white"/>
<defs>
<linearGradient id="paint0_linear_141_62" x1="1.76374e-06" y1="119.549" x2="160" y2="40.4513" gradientUnits="userSpaceOnUse">
<stop stop-color="#282828"/>
<stop offset="0.5" stop-color="#F6F6F6"/>
<stop offset="1" stop-color="#282828"/>
</linearGradient>
</defs>
</svg>
